<?xml version="1.0" standalone="no"?>
<!DOCTYPE svg PUBLIC "-//W3C//DTD SVG 20010904//EN"
 "http://www.w3.org/TR/2001/REC-SVG-20010904/DTD/svg10.dtd">
<svg version="1.0" xmlns="http://www.w3.org/2000/svg"
 width="1200.000000pt" height="1200.000000pt" viewBox="0 0 1200.000000 1200.000000"
 preserveAspectRatio="xMidYMid meet">
<metadata>
Created by potrace 1.14, written by Peter Selinger 2001-2017
</metadata>
<g transform="translate(0.000000,1200.000000) scale(0.100000,-0.100000)"
fill="#000000" stroke="none">
<path d="M9975 10831 c-140 -38 -254 -102 -345 -194 -62 -62 -95 -108 -143
-202 l-36 -69 -108 -2 c-153 -2 -347 -14 -483 -29 -25 -3 -67 -7 -95 -10 -58
-6 -260 -33 -291 -39 -12 -3 -39 -7 -60 -10 -80 -13 -160 -27 -204 -36 -25 -5
-56 -12 -70 -14 -319 -55 -1126 -288 -1460 -421 -19 -8 -93 -37 -165 -64 -521
-198 -1209 -527 -1710 -816 -50 -29 -107 -62 -126 -72 -40 -22 -261 -156 -322
-195 -23 -15 -49 -31 -57 -36 -134 -70 -891 -594 -1055 -729 -5 -5 -59 -47
-120 -93 -92 -71 -455 -370 -491 -405 -6 -5 -42 -37 -79 -70 -191 -167 -307
-277 -550 -520 -223 -224 -260 -263 -400 -420 -48 -55 -102 -116 -119 -135
-25 -27 -190 -227 -249 -300 -152 -189 -537 -737 -537 -765 0 -4 -13 -25 -28
-48 -98 -143 -320 -581 -407 -801 -131 -330 -222 -681 -254 -976 -17 -164 -6
-470 24 -635 42 -231 134 -461 259 -649 72 -107 100 -141 211 -251 113 -113
145 -140 266 -221 264 -176 615 -314 964 -378 17 -3 41 -8 55 -11 64 -11 161
-25 220 -30 36 -4 72 -8 80 -10 95 -25 732 -24 965 0 145 16 290 32 350 41 51
7 214 33 241 38 12 2 37 7 55 10 19 3 102 19 184 36 83 17 160 33 172 36 173
35 638 166 930 263 598 198 1290 498 1888 819 295 158 525 295 523 310 -2 9
43 38 127 81 193 99 414 235 526 325 15 12 39 30 54 41 16 11 33 25 39 30 6 6
36 30 66 55 97 79 122 102 275 255 168 167 237 243 320 349 17 21 35 44 41 50
33 35 211 294 279 408 74 124 202 368 252 483 82 186 177 460 217 625 2 8 14
53 26 99 17 70 40 181 64 321 3 14 10 68 16 120 6 52 13 109 15 126 27 198 22
692 -10 909 -2 17 -7 53 -10 80 -23 188 -94 498 -166 720 -13 39 -23 72 -24
75 -1 3 -5 12 -8 20 -4 8 -14 38 -23 65 -48 147 -191 450 -303 645 -147 256
-380 574 -551 751 -19 20 -47 50 -61 65 -50 56 -226 220 -368 342 l-34 29 49
8 c27 5 54 9 59 11 40 9 333 65 363 69 20 3 51 9 67 12 17 4 32 7 35 8 14 3
109 18 135 21 106 13 130 16 144 19 9 1 43 6 76 9 33 4 71 9 85 11 14 2 70 6
125 10 55 4 102 9 105 10 13 8 28 -14 45 -65 39 -122 121 -251 210 -333 84
-78 237 -153 355 -176 77 -14 242 -7 319 13 59 16 138 50 214 92 39 22 147
129 191 191 l37 53 78 -40 c80 -40 255 -154 326 -212 67 -55 198 -189 246
-253 148 -194 257 -446 303 -700 3 -16 8 -39 10 -50 18 -94 26 -203 26 -375 1
-172 -5 -253 -26 -382 -2 -16 -6 -43 -9 -60 -57 -356 -234 -812 -500 -1291
-158 -285 -325 -562 -427 -710 -37 -54 -68 -100 -68 -101 0 -2 -27 -43 -59
-92 -33 -49 -58 -91 -55 -93 2 -2 5 -2 7 0 2 2 32 40 68 84 456 564 742 1022
1005 1610 75 169 171 455 218 655 27 111 30 127 46 230 6 36 13 76 15 90 25
144 25 522 0 645 -2 11 -7 38 -9 60 -19 149 -97 375 -181 532 -39 72 -127 208
-144 223 -4 3 -18 21 -33 40 -73 98 -231 242 -363 332 -97 67 -150 97 -279
163 l-99 50 -3 44 c-10 140 -45 246 -120 361 -95 146 -222 242 -399 300 -98
32 -272 38 -370 11z m-1938 -1138 c394 -316 714 -681 969 -1106 247 -411 429
-896 510 -1367 14 -77 23 -140 28 -182 3 -27 8 -67 11 -90 18 -141 22 -253 20
-503 -2 -154 -6 -291 -8 -305 -3 -14 -11 -69 -17 -123 -6 -53 -13 -107 -15
-120 -28 -171 -41 -234 -71 -357 -97 -397 -266 -802 -482 -1155 -63 -104 -161
-247 -177 -257 -5 -5 -143 -8 -305 -7 -162 1 -338 1 -392 0 l-96 -1 -55 -52
c-102 -97 -152 -143 -212 -194 -419 -353 -938 -612 -1460 -727 -97 -22 -140
-30 -295 -53 l-35 -5 26 24 c14 13 104 82 200 152 96 71 233 172 304 225 125
92 295 218 565 417 69 51 136 101 149 110 13 10 117 87 230 170 113 84 217
161 230 170 225 166 301 225 301 231 0 4 -282 7 -627 6 l-628 -1 -58 -74 c-32
-41 -64 -81 -70 -89 -11 -14 -191 -250 -358 -470 -35 -47 -66 -87 -69 -90 -3
-3 -39 -50 -80 -105 -296 -392 -540 -710 -545 -710 -5 0 -219 277 -463 596
-473 623 -694 914 -701 927 -7 13 -98 15 -635 15 -344 0 -629 -2 -632 -5 -6
-6 89 -80 331 -258 87 -63 241 -177 344 -253 102 -76 197 -147 211 -157 266
-196 1019 -753 1058 -782 30 -22 52 -42 49 -44 -3 -4 -152 17 -232 32 -101 19
-379 92 -430 113 -11 5 -47 18 -80 30 -214 79 -407 172 -610 294 -208 125
-443 308 -635 495 l-65 63 -483 0 c-266 1 -486 -2 -489 -4 -4 -5 24 -56 37
-67 4 -3 20 -25 37 -50 17 -25 39 -55 49 -67 11 -12 28 -34 39 -49 101 -140
346 -396 535 -560 167 -144 407 -320 581 -423 178 -107 412 -225 579 -294 280
-114 566 -196 870 -250 150 -27 180 -31 290 -42 36 -3 79 -9 95 -11 70 -12
576 -11 695 1 337 33 468 58 860 160 30 8 88 26 129 40 122 42 92 21 -48 -34
-258 -100 -649 -220 -931 -286 -131 -31 -387 -88 -405 -90 -39 -6 -90 -16
-105 -20 -12 -4 -182 -37 -310 -61 -50 -9 -136 -24 -175 -29 -22 -4 -47 -8
-55 -10 -16 -5 -244 -40 -325 -51 -27 -3 -58 -8 -68 -10 -10 -2 -48 -6 -85
-10 -37 -3 -69 -7 -72 -9 -3 -2 -43 -6 -90 -10 -47 -4 -98 -9 -115 -10 -258
-25 -606 -26 -843 -1 -296 31 -630 115 -892 223 -680 281 -1053 762 -1125
1448 -6 53 -6 309 0 360 14 128 18 157 31 225 58 288 143 527 295 830 133 264
265 480 467 765 122 172 370 492 429 553 7 7 29 34 50 60 21 26 45 54 53 62 8
8 46 51 85 95 38 44 74 85 80 91 202 230 558 580 811 799 31 28 62 55 68 60 6
6 79 66 161 134 935 767 2046 1385 3350 1866 209 77 838 288 877 294 3 1 32
-20 65 -46z"/>
<path d="M4535 7537 c-113 -118 -141 -150 -221 -252 -64 -80 -201 -282 -246
-360 -50 -89 -141 -273 -179 -360 -82 -193 -181 -517 -163 -535 5 -4 36 -11
69 -15 33 -3 109 -15 169 -25 60 -11 113 -20 117 -20 4 0 49 60 98 133 167
244 321 428 560 668 176 176 340 322 483 429 48 36 86 69 84 75 -8 29 -571
316 -668 340 -20 5 -36 -7 -103 -78z"/>
<path d="M6320 7579 c-128 -54 -345 -162 -480 -240 l-112 -64 33 -25 c43 -32
191 -151 248 -198 92 -76 150 -131 306 -287 214 -214 394 -429 566 -680 54
-78 81 -110 95 -109 31 1 117 14 138 20 10 4 30 7 45 9 14 1 58 6 98 10 l72 7
-6 32 c-18 97 -91 325 -152 480 -122 305 -355 679 -560 898 -56 60 -186 188
-191 188 -3 0 -48 -19 -100 -41z"/>
<path d="M5444 7083 c-396 -283 -788 -682 -1052 -1069 -60 -89 -70 -106 -54
-102 11 3 100 -19 287 -72 255 -73 491 -159 766 -281 l136 -60 74 34 c41 18
103 46 139 62 36 15 85 37 110 48 155 69 528 191 747 244 62 15 113 32 113 38
0 24 -139 213 -289 395 -189 229 -418 452 -661 646 -73 58 -204 154 -226 167
-6 4 -47 -19 -90 -50z"/>
<path d="M2847 5843 c-2 -1 -31 -3 -65 -4 l-62 -2 -19 -41 c-56 -129 -80 -259
-75 -420 3 -106 13 -159 46 -266 22 -70 97 -224 130 -265 l19 -25 318 0 318 0
-13 86 c-35 240 -35 662 2 892 l5 32 -58 1 c-32 1 -80 3 -108 5 -58 5 -435 11
-438 7z"/>
<path d="M7877 5843 c-3 -3 -152 -11 -230 -12 l-49 -1 6 -42 c17 -136 21 -228
21 -448 0 -135 -4 -281 -8 -325 -8 -81 -17 -162 -20 -180 -1 -7 105 -11 310
-13 l311 -2 29 34 c70 85 151 287 169 421 10 70 11 202 3 250 -4 22 -10 56
-13 75 -7 48 -34 136 -58 192 l-20 47 -66 1 c-157 4 -383 6 -385 3z"/>
<path d="M3665 5733 c-4 -38 -9 -79 -11 -93 -8 -37 -13 -438 -7 -488 5 -38 7
-41 17 -25 7 10 29 63 51 118 21 55 85 194 142 309 58 114 103 209 101 211 -2
1 -25 5 -53 9 -27 3 -79 11 -115 16 -121 18 -117 20 -125 -57z"/>
<path d="M7277 5794 c-1 -1 -27 -5 -57 -8 -58 -7 -129 -22 -135 -28 -3 -2 12
-30 31 -63 55 -91 156 -303 240 -503 26 -64 40 -87 45 -75 14 39 1 476 -19
623 l-7 55 -48 0 c-26 1 -49 0 -50 -1z"/>
<path d="M4169 5666 c-50 -85 -224 -445 -264 -546 -43 -107 -105 -281 -105
-292 0 -5 144 -8 321 -8 l320 0 42 33 c23 17 44 34 47 37 45 49 629 430 658
430 4 0 23 12 41 28 l33 28 -143 57 c-298 118 -618 219 -862 272 l-58 13 -30
-52z"/>
<path d="M6790 5705 c-115 -25 -342 -89 -511 -145 -195 -65 -489 -179 -489
-191 0 -4 37 -28 83 -54 45 -26 98 -56 117 -67 19 -11 67 -41 105 -67 39 -25
74 -48 80 -50 18 -8 171 -115 303 -213 l132 -98 321 0 c302 0 321 1 314 18 -4
9 -21 60 -39 112 -67 193 -210 508 -316 695 -42 74 -39 73 -100 60z"/>
<path d="M5299 10716 c-2 -2 -49 -7 -104 -11 -55 -3 -111 -8 -125 -10 -14 -1
-50 -6 -80 -9 -588 -71 -1239 -309 -1751 -641 -86 -56 -314 -218 -329 -235 -3
-3 -26 -22 -52 -43 -26 -21 -53 -43 -60 -50 -7 -7 -44 -39 -82 -72 -104 -91
-246 -233 -376 -380 -149 -168 -384 -504 -502 -720 -31 -56 -135 -266 -166
-335 -45 -100 -152 -382 -152 -402 0 -8 20 9 110 92 9 8 54 49 100 90 47 41
90 80 96 85 54 50 168 148 254 220 58 49 107 91 110 94 3 4 25 22 50 41 25 19
47 37 50 40 29 32 456 357 705 537 854 614 1817 1156 2770 1558 121 51 228 95
238 98 24 9 21 27 -5 28 -13 0 -32 2 -43 4 -76 12 -172 17 -396 20 -141 2
-258 2 -260 1z"/>
<path d="M6225 10589 c-71 -28 -139 -54 -150 -59 -11 -5 -92 -39 -180 -76
-335 -139 -885 -398 -1170 -552 -594 -321 -1198 -697 -1680 -1046 -53 -38
-262 -192 -275 -203 -8 -6 -91 -71 -185 -144 -203 -158 -511 -412 -621 -514
-6 -5 -44 -40 -85 -76 -272 -245 -431 -402 -451 -446 -19 -43 -34 -111 -44
-198 -6 -50 -6 -50 14 -30 11 11 93 92 183 180 246 240 386 369 588 543 30 26
59 52 65 57 38 35 285 237 387 317 153 121 209 163 361 276 277 206 671 474
972 662 173 108 580 344 725 421 34 19 91 49 125 67 85 46 500 254 561 282 28
13 91 42 140 65 289 136 949 405 1057 431 15 3 32 12 38 19 8 10 -6 16 -67 30
-43 9 -100 23 -127 31 -27 8 -50 14 -50 14 -1 0 -59 -23 -131 -51z"/>
<path d="M6750 10453 c-52 -19 -149 -54 -216 -78 -145 -52 -442 -168 -501
-195 -24 -11 -45 -20 -48 -20 -3 0 -24 -9 -48 -19 -23 -11 -121 -54 -217 -96
-173 -76 -709 -338 -887 -434 -547 -294 -1090 -633 -1607 -1004 -115 -83 -217
-156 -225 -163 -9 -7 -97 -76 -196 -153 -161 -125 -502 -403 -515 -420 -3 -3
-39 -35 -80 -71 -157 -136 -148 -128 -310 -279 -178 -165 -567 -558 -567 -573
-4 -73 -15 -216 -19 -228 -2 -8 33 25 78 75 181 196 615 622 808 791 24 21 51
46 60 54 9 8 42 38 74 65 33 28 64 55 70 60 6 6 65 55 131 110 66 55 122 102
125 105 37 39 477 374 710 540 740 528 1618 1034 2385 1372 50 22 108 48 130
58 22 10 81 34 130 55 50 21 105 44 123 52 138 61 455 177 742 273 112 38 206
73 208 78 4 13 -160 74 -205 77 -23 1 -77 -12 -133 -32z"/>
</g>
</svg>
